PathFileType	4	(X/Y/Z)	D:\TRACE\v60_Jaco2_6-2-23\JustBodyDRS_Motion1_4-platform.trc
DataRate	CameraRate	NumFrames	NumMarkers	Units	OrigDataRate	OrigDataStartFrame	OrigNumFrames
100.00	100.00	      42	5	mm	100.00	870	      6956
Frame#	Time	Left_Front			Right_Front			Left_Aft			Right_Aft			Post			
		X1	Y1	Z1	X2	Y2	Z2	X3	Y3	Z3	X4	Y4	Z4	X5	Y5	Z5	

870	8.690	-840.29675	38.12854	-630.86322	729.71796	38.70026	-636.35437	-748.53876	-12.03293	503.00665	693.90784	-14.56543	512.21375	-53.05304	1349.96240	-898.48053	
871	8.700	-839.87402	38.04718	-630.97919	730.33838	38.59357	-636.39917	-747.99390	-11.76366	503.01862	694.62793	-14.22210	512.26923	-52.73470	1349.70081	-898.41089	
872	8.710	-838.86847	38.18322	-631.32068	730.72711	38.53862	-636.44275	-747.48749	-11.66775	502.85840	694.83881	-14.19021	512.26453	-52.28337	1349.32422	-898.30951	
873	8.720	-838.26593	38.42075	-631.55072	731.40521	38.21703	-636.58411	-747.07874	-11.19905	502.40482	695.39532	-14.09757	512.12061	-51.71817	1348.94983	-897.91302	
874	8.730	-837.80939	37.87060	-631.50256	732.05219	37.80495	-636.63055	-745.82599	-11.97744	502.80957	695.87408	-13.83669	512.05878	-51.21004	1348.73804	-897.62506	
875	8.740	-837.20862	36.96508	-631.40814	732.80701	37.44842	-636.71387	-745.33099	-11.72279	502.70755	697.13641	-13.42615	511.98151	-50.56839	1348.43103	-897.31689	
876	8.750	-836.68982	36.45398	-631.13385	733.48962	37.38241	-636.82629	-744.63464	-11.52454	502.77695	697.58563	-13.31994	511.96680	-49.54650	1347.63196	-897.38702	
877	8.760	-835.77197	36.31316	-631.22943	734.00720	37.08288	-636.85486	-743.94421	-11.47861	502.81024	697.94080	-13.35548	511.82425	-49.12045	1347.24219	-898.60449	
878	8.770	-835.08081	36.31782	-631.62347	734.65143	36.70954	-636.86877	-743.32562	-11.22072	502.85916	698.54077	-12.88392	511.69696	-48.78897	1347.00781	-900.18970	
879	8.780	-834.69165	36.26040	-631.76416	735.52350	36.39137	-636.86249	-742.57623	-10.75729	502.94946	699.68988	-12.73279	511.66907	-47.66678	1346.69153	-901.69830	
880	8.790	-834.10938	35.84290	-631.76440	736.12091	36.26284	-637.08118	-742.16113	-10.61574	502.73273	700.26459	-12.63187	511.59604	-47.19004	1346.38635	-903.19159	
881	8.800	-833.40369	35.39389	-631.80640	736.57025	35.92602	-637.30902	-741.51080	-10.54947	502.61014	700.76880	-12.43107	511.53723	-46.72543	1346.13123	-904.79633	
882	8.810	-832.61774	35.24380	-631.76855	737.28558	35.53439	-637.17468	-740.65845	-10.41547	502.60034	701.12286	-12.39834	511.44809	-45.64030	1345.76086	-905.93658	
883	8.820	-831.83704	35.00355	-631.85303	738.14410	35.27597	-637.20905	-739.87537	-10.28721	502.46628	702.26221	-12.02727	511.42490	-44.91507	1345.47668	-906.76324	
884	8.830	-831.33411	34.85323	-631.99176	738.91797	35.25874	-637.34265	-739.29230	-9.92392	502.32822	703.00745	-11.99764	511.32800	-44.16994	1345.16992	-907.72144	
885	8.840	-830.50775	34.75101	-632.11731	739.74988	35.12193	-637.34485	-738.40155	-9.61277	502.24649	703.47034	-11.89634	511.38278	-43.83426	1344.80054	-907.85938	
886	8.850	-829.69434	34.36076	-632.38232	740.41602	34.73091	-637.62524	-737.73804	-9.54541	502.10510	704.66022	-11.36226	511.31949	-43.10117	1344.19714	-907.98779	
887	8.860	-828.50598	34.00065	-632.45325	741.07501	34.37080	-637.49249	-736.95203	-9.43546	502.04956	705.01361	-11.18476	511.22150	-41.77380	1343.60120	-907.79608	
888	8.870	-827.76984	33.64054	-632.18604	742.03638	34.03839	-637.58118	-736.35626	-9.15635	502.16629	705.70996	-11.06860	511.05478	-41.24418	1343.11584	-907.33002	
889	8.880	-827.48651	33.50449	-632.49719	742.69257	33.84003	-637.72327	-735.37195	-8.90257	502.04907	706.89465	-10.67979	511.10245	-40.78255	1342.70215	-907.19330	
890	8.890	-826.67462	33.11810	-632.57495	743.39642	33.50620	-637.87006	-734.58759	-8.67387	501.89212	707.58252	-10.36223	511.01437	-39.90638	1342.51208	-907.45520	
891	8.900	-825.65643	32.61465	-632.82208	744.17261	33.31796	-638.09949	-733.84143	-8.37948	501.82724	708.15308	-10.08010	510.89511	-39.06370	1342.13855	-907.59314	
892	8.910	-824.80652	32.04416	-632.70856	745.16626	32.96288	-638.03680	-733.05627	-8.17199	501.70627	709.30389	-9.83505	510.84113	-38.58875	1341.38855	-908.74359	
893	8.920	-824.17059	31.65003	-632.68762	745.97150	32.38020	-638.12817	-732.29028	-7.98855	501.63519	709.95935	-9.71532	510.83878	-37.65917	1340.82996	-909.81714	
894	8.930	-823.56775	31.44319	-632.76642	746.71747	32.20975	-638.24847	-731.52087	-7.70282	501.65234	710.75354	-9.59736	510.69897	-36.57664	1340.61890	-911.19427	
895	8.940	-822.46381	31.21424	-633.01477	747.55115	31.94697	-638.39032	-730.87067	-7.30472	501.44354	711.91278	-9.37145	510.46924	-35.98103	1340.22595	-912.73804	
896	8.950	-821.61011	31.03602	-633.26898	748.45227	31.57472	-638.44208	-730.04669	-6.99416	501.32248	712.44110	-9.19434	510.49698	-34.94064	1339.72864	-914.55206	
897	8.960	-820.69849	30.73067	-633.22253	749.19263	31.29117	-638.46710	-729.41870	-6.64662	501.24725	713.02173	-9.09196	510.35254	-34.22088	1339.31677	-915.90863	
898	8.970	-820.16656	30.39043	-633.29785	750.12396	30.88585	-638.66492	-728.70386	-6.32688	501.37051	714.09802	-8.62107	510.31979	-33.52854	1338.66553	-916.75641	
899	8.980	-818.95184	30.03294	-633.59161	750.92102	30.52586	-638.75464	-727.35284	-6.67657	501.04803	715.11426	-8.36092	510.28769	-32.69025	1338.11365	-917.86908	
900	8.990	-818.13733	29.68483	-633.60413	751.84161	30.17007	-638.84253	-725.85986	-6.91977	500.98941	715.52362	-8.29401	510.09583	-31.49777	1337.51758	-918.05280	
901	9.000	-817.39941	29.40272	-633.64166	752.65436	29.86174	-638.98676	-725.41162	-6.15371	500.83029	716.97101	-7.61723	510.11966	-30.50539	1337.02087	-918.46082	
902	9.010	-816.47235	28.96728	-633.73914	753.60059	29.62595	-639.01563	-724.25922	-6.06430	500.78232	717.78192	-7.39833	510.06335	-29.92649	1336.79980	-918.45386	
903	9.020	-815.44489	28.43682	-633.91516	754.57349	29.30878	-639.13379	-723.43945	-5.83043	500.61362	718.35217	-7.25177	510.04279	-28.86504	1336.11853	-918.29791	
904	9.030	-814.74017	27.87775	-633.80560	755.51868	28.71799	-639.36444	-722.40436	-5.84330	500.75336	719.56934	-6.78514	510.06558	-28.37421	1335.65527	-918.40894	
905	9.040	-813.99707	27.46650	-634.00146	756.20227	28.43815	-639.38739	-721.54883	-5.68033	500.50003	720.14709	-6.55599	509.84097	-27.40264	1334.99512	-919.11176	
906	9.050	-812.60431	27.23259	-633.86499	757.04468	28.09920	-639.35663	-720.63684	-5.37853	500.73447	721.16101	-6.47057	509.74881	-26.78386	1334.62329	-919.78406	
907	9.060	-811.74255	27.19050	-634.21191	758.26837	27.85388	-639.48590	-719.83838	-4.78647	500.64459	722.47119	-6.10928	509.75970	-25.49017	1334.22632	-920.90851	
908	9.070	-811.04065	26.91025	-634.28473	759.02423	27.77871	-639.62201	-718.91992	-4.73467	500.41986	722.79895	-6.03514	509.61584	-24.68386	1333.62231	-922.44434	
909	9.080	-809.60596	25.26472	-634.54724	759.85541	27.12509	-639.77625	-717.71283	-4.68106	500.88419	724.12469	-5.86613	509.40500	-23.19538	1333.10217	-923.85376	
910	9.090	-808.85034	25.27053	-634.90381	760.80780	26.40520	-639.95404	-716.68262	-4.49575	500.67307	725.00787	-5.55676	509.39774	-22.43291	1332.69153	-925.18341	
911	9.100	-807.93469	24.98251	-634.78430	761.83716	26.10689	-639.95935	-715.70361	-4.30585	500.56427	725.90027	-5.13580	509.12753	-21.86117	1332.14026	-926.04211	
